<mxfile host="app.diagrams.net" modified="2021-01-20T04:28:56.265Z" agent="5.0 (Windows NT 10.0; Win64; x64) AppleWebKit/537.36 (KHTML, like Gecko) Chrome/84.0.4147.105 Safari/537.36" etag="fPgh3GQMlgc1_u34kTHR" version="14.2.4" type="github" pages="2">
  <diagram id="C5RBs43oDa-KdzZeNtuy" name="ncom-old-version">
    <mxGraphModel dx="1356" dy="802" grid="1" gridSize="12" guides="1" tooltips="1" connect="1" arrows="1" fold="1" page="1" pageScale="1" pageWidth="827" pageHeight="1169" math="0" shadow="0">
      <root>
        <mxCell id="WIyWlLk6GJQsqaUBKTNV-0" />
        <mxCell id="WIyWlLk6GJQsqaUBKTNV-1" parent="WIyWlLk6GJQsqaUBKTNV-0" />
        <mxCell id="2m7f8F7U0wRiKGoIFJkY-135" value="" style="shape=link;html=1;width=17;sketch=0;shadow=0;dashed=1;strokeWidth=2;" parent="WIyWlLk6GJQsqaUBKTNV-1" edge="1">
          <mxGeometry width="100" relative="1" as="geometry">
            <mxPoint x="141.5" y="142" as="sourcePoint" />
            <mxPoint x="131.99698795180734" y="574" as="targetPoint" />
            <Array as="points">
              <mxPoint x="137" y="272" />
            </Array>
          </mxGeometry>
        </mxCell>
        <mxCell id="2m7f8F7U0wRiKGoIFJkY-136" value="" style="edgeStyle=orthogonalEdgeStyle;rounded=0;sketch=0;jumpSize=8;orthogonalLoop=1;jettySize=auto;html=1;shadow=0;strokeWidth=5;fillColor=#a20025;" parent="WIyWlLk6GJQsqaUBKTNV-1" source="2m7f8F7U0wRiKGoIFJkY-137" edge="1">
          <mxGeometry relative="1" as="geometry">
            <mxPoint x="384" y="333" as="targetPoint" />
          </mxGeometry>
        </mxCell>
        <mxCell id="2m7f8F7U0wRiKGoIFJkY-137" value="Queuing API Requests/Files" style="shape=process;whiteSpace=wrap;html=1;backgroundOutline=1;fillColor=#ffe6cc;strokeColor=#d79b00;" parent="WIyWlLk6GJQsqaUBKTNV-1" vertex="1">
          <mxGeometry x="184" y="303" width="140" height="60" as="geometry" />
        </mxCell>
        <mxCell id="2m7f8F7U0wRiKGoIFJkY-138" value="NLIS APIs" style="text;html=1;strokeColor=none;fillColor=none;align=center;verticalAlign=middle;whiteSpace=wrap;rounded=0;fontSize=14;fontStyle=1" parent="WIyWlLk6GJQsqaUBKTNV-1" vertex="1">
          <mxGeometry x="132" y="98" width="40" height="40" as="geometry" />
        </mxCell>
        <mxCell id="2m7f8F7U0wRiKGoIFJkY-139" style="edgeStyle=orthogonalEdgeStyle;rounded=0;sketch=0;orthogonalLoop=1;jettySize=auto;html=1;shadow=0;fillColor=#008a00;strokeColor=#005700;jumpSize=8;strokeWidth=2;" parent="WIyWlLk6GJQsqaUBKTNV-1" source="2m7f8F7U0wRiKGoIFJkY-140" target="2m7f8F7U0wRiKGoIFJkY-137" edge="1">
          <mxGeometry relative="1" as="geometry" />
        </mxCell>
        <mxCell id="2m7f8F7U0wRiKGoIFJkY-140" value="" style="shape=actor;whiteSpace=wrap;html=1;fillColor=#d5e8d4;strokeColor=#82b366;" parent="WIyWlLk6GJQsqaUBKTNV-1" vertex="1">
          <mxGeometry x="54" y="203" width="30" height="40" as="geometry" />
        </mxCell>
        <mxCell id="2m7f8F7U0wRiKGoIFJkY-141" value="" style="edgeStyle=orthogonalEdgeStyle;rounded=0;sketch=0;orthogonalLoop=1;jettySize=auto;html=1;shadow=0;exitX=0.75;exitY=0.25;exitDx=0;exitDy=0;exitPerimeter=0;strokeWidth=2;fillColor=#0050ef;strokeColor=#001DBC;" parent="WIyWlLk6GJQsqaUBKTNV-1" edge="1">
          <mxGeometry relative="1" as="geometry">
            <mxPoint x="76.5" y="335" as="sourcePoint" />
            <mxPoint x="184" y="333" as="targetPoint" />
            <Array as="points">
              <mxPoint x="77" y="333" />
            </Array>
          </mxGeometry>
        </mxCell>
        <mxCell id="2m7f8F7U0wRiKGoIFJkY-142" value="" style="shape=actor;whiteSpace=wrap;html=1;fillColor=#76608a;strokeColor=#432D57;fontColor=#ffffff;" parent="WIyWlLk6GJQsqaUBKTNV-1" vertex="1">
          <mxGeometry x="54" y="292" width="30" height="40" as="geometry" />
        </mxCell>
        <mxCell id="2m7f8F7U0wRiKGoIFJkY-143" value="&amp;nbsp;3rd-party API Users" style="text;html=1;strokeColor=none;fillColor=none;align=center;verticalAlign=middle;whiteSpace=wrap;rounded=0;fontSize=14;fontStyle=1" parent="WIyWlLk6GJQsqaUBKTNV-1" vertex="1">
          <mxGeometry x="36" y="92" width="80" height="50" as="geometry" />
        </mxCell>
        <mxCell id="2m7f8F7U0wRiKGoIFJkY-144" style="edgeStyle=orthogonalEdgeStyle;rounded=0;sketch=0;orthogonalLoop=1;jettySize=auto;html=1;entryX=0.167;entryY=1.033;entryDx=0;entryDy=0;entryPerimeter=0;shadow=0;strokeWidth=2;fillColor=#008a00;strokeColor=#005700;" parent="WIyWlLk6GJQsqaUBKTNV-1" source="2m7f8F7U0wRiKGoIFJkY-145" target="2m7f8F7U0wRiKGoIFJkY-137" edge="1">
          <mxGeometry relative="1" as="geometry" />
        </mxCell>
        <mxCell id="2m7f8F7U0wRiKGoIFJkY-145" value="" style="shape=actor;whiteSpace=wrap;html=1;fillColor=#dae8fc;strokeColor=#6c8ebf;" parent="WIyWlLk6GJQsqaUBKTNV-1" vertex="1">
          <mxGeometry x="48" y="372" width="30" height="40" as="geometry" />
        </mxCell>
        <mxCell id="2m7f8F7U0wRiKGoIFJkY-146" style="edgeStyle=orthogonalEdgeStyle;rounded=0;sketch=0;orthogonalLoop=1;jettySize=auto;html=1;shadow=0;strokeWidth=2;fillColor=#008a00;strokeColor=#005700;" parent="WIyWlLk6GJQsqaUBKTNV-1" edge="1">
          <mxGeometry relative="1" as="geometry">
            <mxPoint x="84" y="477" as="sourcePoint" />
            <mxPoint x="301" y="363" as="targetPoint" />
          </mxGeometry>
        </mxCell>
        <mxCell id="2m7f8F7U0wRiKGoIFJkY-147" value="" style="shape=actor;whiteSpace=wrap;html=1;fillColor=#e1d5e7;strokeColor=#9673a6;" parent="WIyWlLk6GJQsqaUBKTNV-1" vertex="1">
          <mxGeometry x="54" y="453" width="30" height="40" as="geometry" />
        </mxCell>
        <mxCell id="2m7f8F7U0wRiKGoIFJkY-148" style="edgeStyle=orthogonalEdgeStyle;rounded=0;sketch=0;orthogonalLoop=1;jettySize=auto;html=1;shadow=0;exitX=1;exitY=0.75;exitDx=0;exitDy=0;strokeWidth=2;fillColor=#0050ef;strokeColor=#001DBC;" parent="WIyWlLk6GJQsqaUBKTNV-1" source="2m7f8F7U0wRiKGoIFJkY-140" edge="1">
          <mxGeometry relative="1" as="geometry">
            <mxPoint x="54" y="263" as="sourcePoint" />
            <mxPoint x="244" y="303" as="targetPoint" />
          </mxGeometry>
        </mxCell>
        <mxCell id="2m7f8F7U0wRiKGoIFJkY-149" value="" style="edgeStyle=orthogonalEdgeStyle;rounded=0;sketch=0;orthogonalLoop=1;jettySize=auto;html=1;shadow=0;strokeWidth=2;fillColor=#008a00;strokeColor=#005700;" parent="WIyWlLk6GJQsqaUBKTNV-1" edge="1">
          <mxGeometry relative="1" as="geometry">
            <mxPoint x="84" y="312" as="sourcePoint" />
            <mxPoint x="184" y="312" as="targetPoint" />
          </mxGeometry>
        </mxCell>
        <mxCell id="2m7f8F7U0wRiKGoIFJkY-150" style="edgeStyle=orthogonalEdgeStyle;rounded=0;sketch=0;orthogonalLoop=1;jettySize=auto;html=1;entryX=0.167;entryY=1.033;entryDx=0;entryDy=0;entryPerimeter=0;shadow=0;exitX=1;exitY=0.75;exitDx=0;exitDy=0;strokeWidth=2;fillColor=#0050ef;strokeColor=#001DBC;" parent="WIyWlLk6GJQsqaUBKTNV-1" source="2m7f8F7U0wRiKGoIFJkY-145" edge="1">
          <mxGeometry relative="1" as="geometry">
            <mxPoint x="114" y="401.02" as="sourcePoint" />
            <mxPoint x="244.05999999999995" y="363" as="targetPoint" />
          </mxGeometry>
        </mxCell>
        <mxCell id="2m7f8F7U0wRiKGoIFJkY-151" style="edgeStyle=orthogonalEdgeStyle;rounded=0;sketch=0;orthogonalLoop=1;jettySize=auto;html=1;shadow=0;strokeWidth=2;fillColor=#0050ef;strokeColor=#001DBC;" parent="WIyWlLk6GJQsqaUBKTNV-1" edge="1">
          <mxGeometry relative="1" as="geometry">
            <mxPoint x="81" y="494" as="sourcePoint" />
            <mxPoint x="264" y="364" as="targetPoint" />
          </mxGeometry>
        </mxCell>
        <mxCell id="2m7f8F7U0wRiKGoIFJkY-152" value="" style="edgeStyle=orthogonalEdgeStyle;rounded=0;sketch=0;orthogonalLoop=1;jettySize=auto;html=1;shadow=0;strokeWidth=2;fillColor=#008a00;strokeColor=#005700;" parent="WIyWlLk6GJQsqaUBKTNV-1" edge="1">
          <mxGeometry relative="1" as="geometry">
            <mxPoint x="84" y="324" as="sourcePoint" />
            <mxPoint x="184" y="324" as="targetPoint" />
          </mxGeometry>
        </mxCell>
        <mxCell id="2m7f8F7U0wRiKGoIFJkY-153" style="edgeStyle=orthogonalEdgeStyle;rounded=0;sketch=0;orthogonalLoop=1;jettySize=auto;html=1;shadow=0;strokeWidth=2;fillColor=#008a00;strokeColor=#005700;exitX=0.9;exitY=0.5;exitDx=0;exitDy=0;exitPerimeter=0;" parent="WIyWlLk6GJQsqaUBKTNV-1" source="2m7f8F7U0wRiKGoIFJkY-147" edge="1">
          <mxGeometry relative="1" as="geometry">
            <mxPoint x="121.5" y="473" as="sourcePoint" />
            <mxPoint x="319" y="363" as="targetPoint" />
          </mxGeometry>
        </mxCell>
        <mxCell id="2m7f8F7U0wRiKGoIFJkY-154" style="edgeStyle=orthogonalEdgeStyle;rounded=0;sketch=0;orthogonalLoop=1;jettySize=auto;html=1;shadow=0;fillColor=#008a00;strokeColor=#005700;jumpSize=8;strokeWidth=2;entryX=0.75;entryY=0;entryDx=0;entryDy=0;" parent="WIyWlLk6GJQsqaUBKTNV-1" target="2m7f8F7U0wRiKGoIFJkY-137" edge="1">
          <mxGeometry relative="1" as="geometry">
            <mxPoint x="84" y="243" as="sourcePoint" />
            <mxPoint x="274" y="283" as="targetPoint" />
          </mxGeometry>
        </mxCell>
        <mxCell id="2m7f8F7U0wRiKGoIFJkY-155" style="edgeStyle=orthogonalEdgeStyle;rounded=0;sketch=0;orthogonalLoop=1;jettySize=auto;html=1;entryX=0.461;entryY=1;entryDx=0;entryDy=0;entryPerimeter=0;shadow=0;strokeWidth=2;fillColor=#0050ef;strokeColor=#001DBC;" parent="WIyWlLk6GJQsqaUBKTNV-1" edge="1">
          <mxGeometry relative="1" as="geometry">
            <mxPoint x="76" y="494" as="sourcePoint" />
            <mxPoint x="278.98" y="364" as="targetPoint" />
          </mxGeometry>
        </mxCell>
        <mxCell id="2m7f8F7U0wRiKGoIFJkY-156" style="edgeStyle=orthogonalEdgeStyle;rounded=0;sketch=0;jumpSize=8;orthogonalLoop=1;jettySize=auto;html=1;shadow=0;strokeWidth=3;" parent="WIyWlLk6GJQsqaUBKTNV-1" edge="1">
          <mxGeometry relative="1" as="geometry">
            <mxPoint x="432" y="303.5999999999999" as="sourcePoint" />
            <mxPoint x="468" y="260" as="targetPoint" />
            <Array as="points">
              <mxPoint x="432" y="260" />
            </Array>
          </mxGeometry>
        </mxCell>
        <mxCell id="2m7f8F7U0wRiKGoIFJkY-157" style="edgeStyle=orthogonalEdgeStyle;rounded=0;sketch=0;jumpSize=8;orthogonalLoop=1;jettySize=auto;html=1;entryX=0;entryY=0.5;entryDx=0;entryDy=0;shadow=0;strokeColor=#000000;strokeWidth=3;fontSize=13;" parent="WIyWlLk6GJQsqaUBKTNV-1" source="2m7f8F7U0wRiKGoIFJkY-158" target="2m7f8F7U0wRiKGoIFJkY-167" edge="1">
          <mxGeometry relative="1" as="geometry" />
        </mxCell>
        <mxCell id="2m7f8F7U0wRiKGoIFJkY-158" value="Request Types" style="html=1;whiteSpace=wrap;aspect=fixed;shape=isoRectangle;fillColor=#ffe6cc;strokeColor=#d79b00;" parent="WIyWlLk6GJQsqaUBKTNV-1" vertex="1">
          <mxGeometry x="381" y="303.5999999999999" width="99" height="59.4" as="geometry" />
        </mxCell>
        <mxCell id="2m7f8F7U0wRiKGoIFJkY-159" value="" style="shape=curlyBracket;whiteSpace=wrap;html=1;rounded=1;fontSize=13;direction=south;" parent="WIyWlLk6GJQsqaUBKTNV-1" vertex="1">
          <mxGeometry x="480" y="212" width="180" height="20" as="geometry" />
        </mxCell>
        <mxCell id="2m7f8F7U0wRiKGoIFJkY-160" value="Steps to Process NLIS Transactions: Animal Movements/ Kills/.." style="text;html=1;strokeColor=none;fillColor=none;align=center;verticalAlign=middle;whiteSpace=wrap;rounded=0;fontSize=13;" parent="WIyWlLk6GJQsqaUBKTNV-1" vertex="1">
          <mxGeometry x="444" y="182" width="204" height="20" as="geometry" />
        </mxCell>
        <mxCell id="2m7f8F7U0wRiKGoIFJkY-161" value="" style="shape=image;html=1;verticalLabelPosition=bottom;verticalAlign=top;imageAspect=1;aspect=fixed;image=img/clipart/Gear_128x128.png" parent="WIyWlLk6GJQsqaUBKTNV-1" vertex="1">
          <mxGeometry x="528" y="243" width="26.85" height="31.5" as="geometry" />
        </mxCell>
        <mxCell id="2m7f8F7U0wRiKGoIFJkY-162" value="" style="shape=image;html=1;verticalLabelPosition=bottom;verticalAlign=top;imageAspect=1;aspect=fixed;image=img/clipart/Gear_128x128.png" parent="WIyWlLk6GJQsqaUBKTNV-1" vertex="1">
          <mxGeometry x="574.57" y="243" width="26.85" height="31.5" as="geometry" />
        </mxCell>
        <mxCell id="2m7f8F7U0wRiKGoIFJkY-163" value="" style="shape=image;html=1;verticalLabelPosition=bottom;verticalAlign=top;imageAspect=1;aspect=fixed;image=img/clipart/Gear_128x128.png" parent="WIyWlLk6GJQsqaUBKTNV-1" vertex="1">
          <mxGeometry x="621.9999999999999" y="243" width="26.85" height="31.5" as="geometry" />
        </mxCell>
        <mxCell id="2m7f8F7U0wRiKGoIFJkY-164" style="edgeStyle=orthogonalEdgeStyle;rounded=0;sketch=0;jumpSize=8;orthogonalLoop=1;jettySize=auto;html=1;shadow=0;strokeColor=#000000;strokeWidth=3;fontSize=14;" parent="WIyWlLk6GJQsqaUBKTNV-1" source="2m7f8F7U0wRiKGoIFJkY-165" target="2m7f8F7U0wRiKGoIFJkY-180" edge="1">
          <mxGeometry relative="1" as="geometry" />
        </mxCell>
        <mxCell id="2m7f8F7U0wRiKGoIFJkY-165" value="" style="shape=partialRectangle;whiteSpace=wrap;html=1;left=0;right=0;fillColor=none;fontSize=13;" parent="WIyWlLk6GJQsqaUBKTNV-1" vertex="1">
          <mxGeometry x="472" y="239.5" width="189" height="40" as="geometry" />
        </mxCell>
        <mxCell id="2m7f8F7U0wRiKGoIFJkY-166" style="edgeStyle=orthogonalEdgeStyle;rounded=0;sketch=0;jumpSize=8;orthogonalLoop=1;jettySize=auto;html=1;entryX=0.5;entryY=1;entryDx=0;entryDy=0;shadow=0;strokeColor=#000000;strokeWidth=3;fontSize=14;exitX=1;exitY=0.5;exitDx=0;exitDy=0;" parent="WIyWlLk6GJQsqaUBKTNV-1" source="2m7f8F7U0wRiKGoIFJkY-167" edge="1">
          <mxGeometry relative="1" as="geometry">
            <mxPoint x="642" y="433.5" as="sourcePoint" />
            <mxPoint x="727" y="366" as="targetPoint" />
          </mxGeometry>
        </mxCell>
        <mxCell id="2m7f8F7U0wRiKGoIFJkY-167" value="" style="shape=partialRectangle;whiteSpace=wrap;html=1;left=0;right=0;fillColor=none;fontSize=13;" parent="WIyWlLk6GJQsqaUBKTNV-1" vertex="1">
          <mxGeometry x="474" y="415" width="186" height="40" as="geometry" />
        </mxCell>
        <mxCell id="2m7f8F7U0wRiKGoIFJkY-168" value="" style="shape=image;html=1;verticalLabelPosition=bottom;verticalAlign=top;imageAspect=1;aspect=fixed;image=img/clipart/Gear_128x128.png" parent="WIyWlLk6GJQsqaUBKTNV-1" vertex="1">
          <mxGeometry x="533" y="420" width="26.85" height="31.5" as="geometry" />
        </mxCell>
        <mxCell id="2m7f8F7U0wRiKGoIFJkY-169" value="" style="shape=image;html=1;verticalLabelPosition=bottom;verticalAlign=top;imageAspect=1;aspect=fixed;image=img/clipart/Gear_128x128.png" parent="WIyWlLk6GJQsqaUBKTNV-1" vertex="1">
          <mxGeometry x="578" y="419" width="26.85" height="31.5" as="geometry" />
        </mxCell>
        <mxCell id="2m7f8F7U0wRiKGoIFJkY-170" value="" style="shape=image;html=1;verticalLabelPosition=bottom;verticalAlign=top;imageAspect=1;aspect=fixed;image=img/clipart/Gear_128x128.png" parent="WIyWlLk6GJQsqaUBKTNV-1" vertex="1">
          <mxGeometry x="622.9999999999999" y="419" width="26.85" height="31.5" as="geometry" />
        </mxCell>
        <mxCell id="2m7f8F7U0wRiKGoIFJkY-171" value="" style="shape=curlyBracket;whiteSpace=wrap;html=1;rounded=1;fontSize=13;direction=north;" parent="WIyWlLk6GJQsqaUBKTNV-1" vertex="1">
          <mxGeometry x="480" y="468" width="180" height="20" as="geometry" />
        </mxCell>
        <mxCell id="2m7f8F7U0wRiKGoIFJkY-172" value="Steps to Generate Reports:&amp;nbsp;&lt;br&gt;Beast Enq/Device Status" style="text;html=1;strokeColor=none;fillColor=none;align=center;verticalAlign=middle;whiteSpace=wrap;rounded=0;fontSize=13;" parent="WIyWlLk6GJQsqaUBKTNV-1" vertex="1">
          <mxGeometry x="472" y="493" width="180" height="20" as="geometry" />
        </mxCell>
        <mxCell id="2m7f8F7U0wRiKGoIFJkY-173" style="edgeStyle=orthogonalEdgeStyle;rounded=0;sketch=0;jumpSize=8;orthogonalLoop=1;jettySize=auto;html=1;entryX=0.5;entryY=0;entryDx=0;entryDy=0;shadow=0;strokeColor=#000000;strokeWidth=3;fontSize=13;" parent="WIyWlLk6GJQsqaUBKTNV-1" source="2m7f8F7U0wRiKGoIFJkY-174" target="2m7f8F7U0wRiKGoIFJkY-175" edge="1">
          <mxGeometry relative="1" as="geometry" />
        </mxCell>
        <mxCell id="2m7f8F7U0wRiKGoIFJkY-174" value="Generate results for transactions" style="label;whiteSpace=wrap;html=1;image=img/clipart/Gear_128x128.png;fontSize=13;" parent="WIyWlLk6GJQsqaUBKTNV-1" vertex="1">
          <mxGeometry x="816" y="243.5999999999999" width="132" height="60" as="geometry" />
        </mxCell>
        <mxCell id="2m7f8F7U0wRiKGoIFJkY-175" value="Return results back to users" style="shape=ext;double=1;whiteSpace=wrap;html=1;aspect=fixed;fontSize=13;" parent="WIyWlLk6GJQsqaUBKTNV-1" vertex="1">
          <mxGeometry x="1032" y="303.5999999999999" width="80" height="80" as="geometry" />
        </mxCell>
        <mxCell id="2m7f8F7U0wRiKGoIFJkY-176" value="" style="edgeStyle=segmentEdgeStyle;endArrow=classic;html=1;shadow=0;strokeColor=#000000;strokeWidth=3;fontSize=13;exitX=0.5;exitY=1;exitDx=0;exitDy=0;" parent="WIyWlLk6GJQsqaUBKTNV-1" source="2m7f8F7U0wRiKGoIFJkY-175" edge="1">
          <mxGeometry width="50" height="50" relative="1" as="geometry">
            <mxPoint x="1068" y="527" as="sourcePoint" />
            <mxPoint x="960" y="393" as="targetPoint" />
            <Array as="points">
              <mxPoint x="1072" y="393" />
              <mxPoint x="1032" y="393" />
            </Array>
          </mxGeometry>
        </mxCell>
        <mxCell id="2m7f8F7U0wRiKGoIFJkY-178" value="NLIS Monolith application - NCom" style="text;html=1;strokeColor=none;fillColor=none;align=center;verticalAlign=middle;whiteSpace=wrap;rounded=0;fontSize=14;fontStyle=1" parent="WIyWlLk6GJQsqaUBKTNV-1" vertex="1">
          <mxGeometry x="576" y="93" width="240" height="40" as="geometry" />
        </mxCell>
        <mxCell id="2m7f8F7U0wRiKGoIFJkY-179" value="" style="edgeStyle=orthogonalEdgeStyle;rounded=0;sketch=0;jumpSize=8;orthogonalLoop=1;jettySize=auto;html=1;shadow=0;strokeColor=#000000;strokeWidth=3;fontSize=14;" parent="WIyWlLk6GJQsqaUBKTNV-1" source="2m7f8F7U0wRiKGoIFJkY-180" target="2m7f8F7U0wRiKGoIFJkY-174" edge="1">
          <mxGeometry relative="1" as="geometry" />
        </mxCell>
        <mxCell id="2m7f8F7U0wRiKGoIFJkY-182" style="edgeStyle=orthogonalEdgeStyle;rounded=0;sketch=0;jumpSize=8;orthogonalLoop=1;jettySize=auto;html=1;entryX=0;entryY=0.5;entryDx=0;entryDy=0;shadow=0;strokeColor=#000000;strokeWidth=3;fontSize=14;" parent="WIyWlLk6GJQsqaUBKTNV-1" source="2m7f8F7U0wRiKGoIFJkY-180" target="2m7f8F7U0wRiKGoIFJkY-181" edge="1">
          <mxGeometry relative="1" as="geometry" />
        </mxCell>
        <mxCell id="2m7f8F7U0wRiKGoIFJkY-180" value="Database" style="shape=datastore;whiteSpace=wrap;html=1;fontSize=14;fillColor=#ffe6cc;strokeColor=#d79b00;" parent="WIyWlLk6GJQsqaUBKTNV-1" vertex="1">
          <mxGeometry x="691" y="298" width="72" height="67" as="geometry" />
        </mxCell>
        <mxCell id="2m7f8F7U0wRiKGoIFJkY-184" style="edgeStyle=orthogonalEdgeStyle;rounded=0;sketch=0;jumpSize=8;orthogonalLoop=1;jettySize=auto;html=1;entryX=0.5;entryY=0;entryDx=0;entryDy=0;shadow=0;strokeColor=#000000;strokeWidth=3;fontSize=14;" parent="WIyWlLk6GJQsqaUBKTNV-1" source="2m7f8F7U0wRiKGoIFJkY-181" target="2m7f8F7U0wRiKGoIFJkY-183" edge="1">
          <mxGeometry relative="1" as="geometry" />
        </mxCell>
        <mxCell id="2m7f8F7U0wRiKGoIFJkY-181" value="Generate results for reports" style="label;whiteSpace=wrap;html=1;image=img/clipart/Gear_128x128.png;fontSize=13;" parent="WIyWlLk6GJQsqaUBKTNV-1" vertex="1">
          <mxGeometry x="816" y="412" width="132" height="60" as="geometry" />
        </mxCell>
        <mxCell id="2m7f8F7U0wRiKGoIFJkY-183" value="Return results back to users" style="shape=ext;double=1;whiteSpace=wrap;html=1;aspect=fixed;fontSize=13;" parent="WIyWlLk6GJQsqaUBKTNV-1" vertex="1">
          <mxGeometry x="1032" y="488" width="80" height="80" as="geometry" />
        </mxCell>
        <mxCell id="2m7f8F7U0wRiKGoIFJkY-185" value="" style="edgeStyle=segmentEdgeStyle;endArrow=classic;html=1;shadow=0;strokeColor=#000000;strokeWidth=3;fontSize=13;exitX=0.5;exitY=1;exitDx=0;exitDy=0;" parent="WIyWlLk6GJQsqaUBKTNV-1" edge="1">
          <mxGeometry width="50" height="50" relative="1" as="geometry">
            <mxPoint x="1068" y="568" as="sourcePoint" />
            <mxPoint x="960" y="577" as="targetPoint" />
            <Array as="points">
              <mxPoint x="1068" y="577.4000000000001" />
              <mxPoint x="1028" y="577.4000000000001" />
            </Array>
          </mxGeometry>
        </mxCell>
        <mxCell id="2m7f8F7U0wRiKGoIFJkY-188" value="" style="endArrow=classic;html=1;shadow=0;strokeColor=#ae4132;strokeWidth=3;fontSize=14;fillColor=#fad9d5;dashed=1;exitX=0.728;exitY=-0.083;exitDx=0;exitDy=0;exitPerimeter=0;" parent="WIyWlLk6GJQsqaUBKTNV-1" source="2m7f8F7U0wRiKGoIFJkY-190" target="2m7f8F7U0wRiKGoIFJkY-174" edge="1">
          <mxGeometry width="50" height="50" relative="1" as="geometry">
            <mxPoint x="660" y="828" as="sourcePoint" />
            <mxPoint x="746" y="1464" as="targetPoint" />
          </mxGeometry>
        </mxCell>
        <mxCell id="2m7f8F7U0wRiKGoIFJkY-189" value="" style="endArrow=classic;html=1;shadow=0;strokeColor=#ae4132;strokeWidth=3;fontSize=14;fillColor=#fad9d5;dashed=1;exitX=0.75;exitY=0;exitDx=0;exitDy=0;" parent="WIyWlLk6GJQsqaUBKTNV-1" source="2m7f8F7U0wRiKGoIFJkY-190" target="2m7f8F7U0wRiKGoIFJkY-181" edge="1">
          <mxGeometry width="50" height="50" relative="1" as="geometry">
            <mxPoint x="648" y="648" as="sourcePoint" />
            <mxPoint x="861.5794133923632" y="1194.6" as="targetPoint" />
          </mxGeometry>
        </mxCell>
        <mxCell id="2m7f8F7U0wRiKGoIFJkY-190" value="Splitting the shared component will reduce the risk of transaction failures.&lt;br&gt;" style="text;html=1;strokeColor=none;fillColor=none;align=center;verticalAlign=middle;whiteSpace=wrap;rounded=0;fontSize=14;" parent="WIyWlLk6GJQsqaUBKTNV-1" vertex="1">
          <mxGeometry x="864" y="660" width="268" height="24" as="geometry" />
        </mxCell>
        <mxCell id="2m7f8F7U0wRiKGoIFJkY-192" value="&lt;h1&gt;Upcoming changes to NLIS APIs - Mar 2021&lt;/h1&gt;" style="text;html=1;strokeColor=none;fillColor=none;spacing=5;spacingTop=-20;whiteSpace=wrap;overflow=hidden;rounded=0;" parent="WIyWlLk6GJQsqaUBKTNV-1" vertex="1">
          <mxGeometry x="36" y="48" width="552" height="48" as="geometry" />
        </mxCell>
        <mxCell id="-rLUQViIAmrECm2obC3M-3" value="" style="image;html=1;image=img/lib/clip_art/computers/Software_128x128.png;labelBackgroundColor=none;" parent="WIyWlLk6GJQsqaUBKTNV-1" vertex="1">
          <mxGeometry x="480" y="229.13" width="44" height="59.25" as="geometry" />
        </mxCell>
        <mxCell id="-rLUQViIAmrECm2obC3M-4" value="" style="image;html=1;image=img/lib/clip_art/computers/Software_128x128.png;labelBackgroundColor=none;" parent="WIyWlLk6GJQsqaUBKTNV-1" vertex="1">
          <mxGeometry x="480" y="404.87" width="44" height="59.25" as="geometry" />
        </mxCell>
        <mxCell id="-rLUQViIAmrECm2obC3M-5" value="" style="endArrow=classic;html=1;shadow=0;strokeColor=#ae4132;strokeWidth=3;fontSize=14;fillColor=#fad9d5;dashed=1;" parent="WIyWlLk6GJQsqaUBKTNV-1" target="-rLUQViIAmrECm2obC3M-3" edge="1">
          <mxGeometry width="50" height="50" relative="1" as="geometry">
            <mxPoint x="588" y="672" as="sourcePoint" />
            <mxPoint x="300" y="636" as="targetPoint" />
          </mxGeometry>
        </mxCell>
        <mxCell id="-rLUQViIAmrECm2obC3M-6" value="Introduced structured logging and better exception handling when any issue occur." style="text;html=1;strokeColor=none;fillColor=none;align=center;verticalAlign=middle;whiteSpace=wrap;rounded=0;fontSize=14;" parent="WIyWlLk6GJQsqaUBKTNV-1" vertex="1">
          <mxGeometry x="457.41999999999996" y="672" width="268" height="24" as="geometry" />
        </mxCell>
        <mxCell id="-rLUQViIAmrECm2obC3M-7" value="" style="endArrow=classic;html=1;shadow=0;strokeColor=#ae4132;strokeWidth=3;fontSize=14;fillColor=#fad9d5;dashed=1;exitX=0.5;exitY=0;exitDx=0;exitDy=0;" parent="WIyWlLk6GJQsqaUBKTNV-1" source="-rLUQViIAmrECm2obC3M-6" target="-rLUQViIAmrECm2obC3M-4" edge="1">
          <mxGeometry width="50" height="50" relative="1" as="geometry">
            <mxPoint x="564" y="670" as="sourcePoint" />
            <mxPoint x="472.0023194473013" y="286.1900000000001" as="targetPoint" />
          </mxGeometry>
        </mxCell>
      </root>
    </mxGraphModel>
  </diagram>
  <diagram id="7dlhvv-f8eVYRZkjr-MH" name="ncom-ver2">
    <mxGraphModel dx="1356" dy="802" grid="1" gridSize="10" guides="1" tooltips="1" connect="1" arrows="1" fold="1" page="1" pageScale="1" pageWidth="850" pageHeight="1100" math="0" shadow="0">
      <root>
        <mxCell id="FbeTW0E78XaFR_oxXxAL-0" />
        <mxCell id="FbeTW0E78XaFR_oxXxAL-1" parent="FbeTW0E78XaFR_oxXxAL-0" />
      </root>
    </mxGraphModel>
  </diagram>
</mxfile>
